<?xml version="1.0" encoding="UTF-8"?>
<svg version="1.1" viewBox="0 0 2048 2048" width="1280" height="1280" xmlns="http://www.w3.org/2000/svg">
<path transform="translate(1420)" d="m0 0h269l19 6 12 5 14 9 12 11 9 10 8 13 6 13 4 14 2 17v244l-2 15-4 12-5 9-8 10-10 9-5 2v260l5 2 10 9 7 8 8 15 3 11 1 7v381l-2 17-5 13-6 10-11 12-8 6h-2v260l5 2 10 9 7 8 6 11 4 10 2 13v245l-1 14-4 16-5 13-8 14-9 11-9 9-13 9-16 8-23 6-14 2-1 146-3 17-6 16-8 14-10 13-7 7-16 11-17 8-21 6h-1192l-31-7-17-6-17-8-17-11-10-8-12-11-7-7-11-14-11-18-9-19-6-19-4-20-2-30v-1640l1-38 2-17 5-21 7-18 8-16 9-14 7-9 11-12 5-5 11-10 16-11 16-9 20-8 19-5 13-2 14-1h149l13 2 15 6 11 8 10 10 5 7h142l10-9 13-9 16-8 17-5 16-2h448l9 2 9 6 7 8 4 9 1 9 67-1 4-20 8-16 7-9 8-8 11-7 15-6z" fill="#926455"/>
<path transform="translate(1420)" d="m0 0h269l19 6 12 5 14 9 12 11 9 10 8 13 6 13 4 14 2 17v244l-2 15-4 12-5 9-8 10-10 9-5 2v260l5 2 10 9 7 8 8 15 3 11 1 7v381l-2 17-5 13-6 10-11 12-8 6h-2v260l5 2 10 9 7 8 6 11 4 10 2 13v245l-1 14-4 16-5 13-8 14-9 11-9 9-13 9-16 8-23 6-14 2-1 146-3 17-6 16-8 14-10 13-7 7-16 11-17 8-21 6h-1192l-31-7-17-6-17-8-17-11-10-8-12-11-7-7-11-14-11-18-9-19-6-19-4-20-2-30v-1640l1-38 2-17 5-21 7-18 8-16 9-14 7-9 11-12 5-5 11-10 16-11 16-9 20-8 19-5 13-2 14-1h149l13 2 15 6 11 8 10 10 5 7h142l10-9 13-9 16-8 17-5 16-2h448l9 2 9 6 7 8 4 9 2 9-1 9-6 11-8 8-12 6-9 1h-421l-25 1-10 4-9 7-9 11-19 29-12 19-3 5-2 16v90l-2 12-5 13-8 11-7 7-13 8-13 5-6 1h-9l-17-4-13-7-15-13-22-22v-2l-4-2v-2l-4-2-37-37-7-8-8-11-7-12-5-13-3-12-1-10-1-59-1-22-99-1-1 1479v124h136v-161l1-20 4-8 5-6 10-7 8-3h11l10 4 11 8 6 8 2 4 1 33v148h68l-1-21 1-56 5-10 9-9 12-6 9-1 13 4 9 6 8 9 2 4 1 6v74h307v-160l1-21 4-8 5-6 10-7 8-3h11l10 4 11 8 6 8 2 4v181l204-1 1-27 3-14 8-15 12-14 218-218 14-10 10-5 12-3h30v-237l-11-1-19-5-15-6-11-6-11-8-10-10-9-13-9-16-5-8-19-10-14-10-12-11-9-12-8-14-6-18-2-13-1-20v-154l1-20 3-17 5-13 7-13 9-12 11-11 14-10 12-7 10-4 7-15 6-10 8-11 13-13 13-9 16-8 18-5 13-2h5l-1-236-26-1-15-4-16-8-11-9-203-203-6-5-7-8-9-10-8-14-4-12-1-7-1-63 4-20 8-16 7-9 8-8 11-7 15-6z" fill="#373737"/>
<path transform="translate(904,512)" d="m0 0h150l177 1 3 7 7 21 11 23 11 16 9 11 16 16 13 10 16 10 16 8 22 8 9 3 1 1v36l-1 173-9 3-23 8-23 12-15 11-13 11-8 8-8 10-9 13-9 16-5 11-6 17-4 13h-415l-3-8-9-25-12-23-10-14-12-14-8-8-17-13-15-9-16-8-27-9-5-2v-55l1-155 10-4 20-7 16-8 14-8 13-10 13-12 9-9 11-15 9-15 8-17 9-28z" fill="#D7B1A6"/>
<path transform="translate(405,1775)" d="m0 0h970l10 13 11 9 16 8 13 3 178 1 1 1v137l-2 11-6 10-8 7-7 3-17 2h-1150l-17-1-16-3-16-6-14-8-13-11-10-11-8-13-7-15-4-15-2-16v-9l2-15 4-15 8-17 10-14 12-12 11-8 12-7 16-6 10-2z" fill="#DBDBDB"/>
<path transform="translate(812,443)" d="m0 0h419l17 2 12 4 11 6 10 9 6 7 6 11 5 11 9 27 10 18 11 13 10 8 15 9 18 7 21 7 13 7 10 9 6 7 8 13 3 7 1 5 1 21v209l-2 14-5 14-10 14-10 9-14 8-19 7-17 6-14 7-10 8-3 1v2l-5 5-7 8-9 15-6 15-7 22-7 13-8 10-11 9-13 7-15 4-39 1h-40l-354-1-15-3-10-4-12-8-10-10-8-14-7-19-7-20-9-16-5-6v-2h-2l-5-5-9-8-14-8-18-8-21-7-12-6-9-7-8-8-8-14-4-11-1-6-1-16v-201l1-18 3-13 8-14 8-10 10-8 16-8 24-8 18-8 11-8 10-9 10-13 8-16 6-16 6-18 6-11 9-11 13-10 13-6 8-2zm92 69-88 1-10 30-9 19-12 18-9 11-14 14-14 11-16 10-16 8-18 7-13 4-1 1-1 155v55l8 3 24 8 16 8 15 9 13 10 12 11 9 10 11 15 9 16 7 15 9 27 1 1h415l8-25 7-16 10-18 12-16 12-13 10-9 18-13 23-12 27-9 5-2 1-173v-36l-2-2-20-6-19-8-14-8-17-12-13-12-11-11-11-15-8-13-9-19-7-21-3-7-177-1z" fill="#373737"/>
<path transform="translate(371,109)" d="m0 0 5 1 1 168v1347l-1 84-16 6-26 11-19 10-7 3-2-6-1-66-1-122v-1194l1-91 1-45 1-19 2-15 5-16 11-19 9-11 12-11 14-9z" fill="#684A3E"/>
<path transform="translate(1435,68)" d="m0 0 244 1 11 4 10 9 5 11 1 5v242l-2 1h-51l-8-7-211-211v-54z" fill="#E4CC62"/>
<path transform="translate(1653,1468)" d="m0 0h51l2 1v243l-3 10-6 8-7 6-11 4h-245v-53l7-8 208-208z" fill="#E4CC62"/>
<path transform="translate(543,1843)" d="m0 0h552l10 2 10 6 6 7 4 8 1 3v16l-4 9-6 8-10 7-6 2-9 1h-548l-8-2-8-4-7-6-6-10-2-6v-14l4-10 7-9 10-6z" fill="#383737"/>
<path transform="translate(1668,717)" d="m0 0h38v374l-2 1h-36l-10-3-9-6-6-8-3-8-3-17-4-10-8-9-10-5-19-3-12-6-6-5-5-8-2-6-1-84v-93l1-11 5-10 4-5 10-7 12-3 12-2 9-4 7-6 6-11 2-9 2-12 5-10 8-8 10-5z" fill="#E4CC62"/>
<path transform="translate(1225,1843)" d="m0 0h177l10 2 10 6 7 8 4 10 1 11-3 11-6 9-8 7-10 4-9 1h-172l-8-2-10-5-7-7-6-12-1-9 2-11 5-10 9-8 9-4z" fill="#383837"/>
<path transform="translate(615,137)" d="m0 0h83l-8 17-4 13-2 11-1 13v67l-7-6-55-55-5-9-1-5z" fill="#DADBDB"/>
<path transform="translate(1706,717)" d="m0 0h1l1 5 1 117v123l-1 129-4 1 2-1z" fill="#7A5547"/>
<path transform="translate(1706,1469)" d="m0 0 2 1 1 172-1 66-2 3z" fill="#7C5649"/>
<path transform="translate(1571,807)" d="m0 0 1 3-1 11v176h-1l-2-20v-128l1-36z" fill="#81594C"/>
</svg>