<?xml version="1.0" encoding="UTF-8"?>
<svg version="1.1" viewBox="0 0 2000 2000" width="1280" height="1280" xmlns="http://www.w3.org/2000/svg">
<path transform="translate(0)" d="m0 0h2e3v2e3h-2e3z" fill="#FCFCFC"/>
<path transform="translate(1055,349)" d="m0 0h18l15 3 17 8 11 9 8 8 7 10 8 16 3 9 1 2v20h40v5h-39l-7 21-7 13-12 14-11 14-6 12-3 10-1 4h38v281l-2 1h-134l-2 1-3 5-9 6-8 3-13 2-11-1-11-3-10-7-4-5-136-1-1-1v-280l1-1 36-1 13-1v-72l7-1h18l16 2 17 5 12 5 11 8 7 6 10 13 10 16 11 17 5-2 16-8 18-5 6-1h17l-2-5-7-9-9-10-8-10-8-15-5-17-1-6v-11l3-16 5-15 9-15 11-11 13-9 13-6 12-3z" fill="#203473"/>
<path transform="translate(753,593)" d="m0 0h16l-1 14h-10l-11 2-8 6-6 7-2 5-1 6v314h536l-1-11-4 4-11 1-9 1-3-3 4-2-1-4h-5v-2h-471l-4-1-1-176 1-113h14v275h447l-1-54v-209l-2-1h-41l-3-1-1-3v-31l1-24h69l11 3 10 6 7 7 6 10 2 6 1 7v315l67 1v41l-2 12-4 8-9 10-8 6-13 4-11 1h-94l6 14 6 8 9 5 9 2h71l14 3 10 6 8 8 7 14 1 5v17l-3 10-6 9-8 8-10 5-6 2-14 1h-602l-13 1-9 4-7 6-5 9-1 4v10l3 10 9 10 5 3 5 1 477 1 1-9 6-10 8-6 6-2h53l1 1v13h31l2 1 1 9-1 3-7 1h-26v12h25l8 1 1 2v8l-2 3-9 1h-23l-1 13-10 1h-35l-13-2-9-6-5-8-3-12h-471l-12-2-10-5-10-9-5-8-3-10v-18l4-13 7-9 8-7 9-4 11-2 621-1 10-4 8-7 5-10v-16l-5-10-5-5-8-5-5-1h-60l-22-2-12-5-6-4-7-7-7-14-3-11-73-1h-425l-14-2-10-4-9-7-7-8-4-10-1-9v-41l1-1h63v-311l2-13 5-11 6-8 8-6 8-4z" fill="#203473"/>
<path transform="translate(1055,353)" d="m0 0h21l13 3 13 7 11 9 8 8 8 12 7 16 2 7v24l-1 12-2 1-1 6-3 3-6 10-9 11-12 16-6 10-4 14-1 22 1-13 1-3h3l1 12 21 1 1 1v242l-4 1-24-1-18-4-32-10-15-3h-28l-16 4-11 5h-3l-1-3 1-238 9-6 14-5 10-2 18-1 5 2 1 7 2 51 5 9 6 3 8 1h39l5-4 2-4 2-27v-8l-2 1v11l-2 15-4 1-41 1 4 1h28l5-1v2l6 1-1 6h-2v2l-6 2h-38l-8-4-3-7v-15l33-1 8-1-1-1-40-1v-13h60v-3l-32-1-9-1-7-32-7-40 1-3-2-1-1-6v-9h-2l2 17 13 70v4h-16l-2-26-4-13-7-11-9-10-9-12-8-14-4-11-2-7v-22l4-15 8-16 8-10 9-9 13-8 13-5z" fill="#D1E5FB"/>
<path transform="translate(664,962)" d="m0 0h672v11l-1 17-3 10-9 10-6 4-7 2-93 1h-506l-23-1-8-3-6-4-7-8-3-8-1-13v-17z" fill="#FDD074"/>
<path transform="translate(1175,607)" d="m0 0h71l10 5 5 5 5 8 1 3v320h-536v-1h535l-1-11-4 4-11 1-9 1-3-3 4-2-1-4h-5v-2h-471l-4-1-1-176 1-113h14v275h447l-1-54v-209l-2-1h-41l-3-1-1-3v-31z" fill="#C4DAF2"/>
<path transform="translate(855,466)" d="m0 0h13l18 3 16 6 10 6 9 8 11 15 9 15 9 13 6 7v230l-4-4-10-15-10-14-11-11-13-8-12-5-25-5-16-2z" fill="#FDBB2D"/>
<path transform="translate(1055,353)" d="m0 0h21l13 3 13 7 11 9 8 8 8 12 7 16 2 7v24l-1 12-2 1-1 6-3 3-6 10-9 11-12 16-7 8-3 6-1 5-1 3-6 5h-2l1-9 2-15 1-15 6-31h-2l-1 12-4 16-8 43-3 18-12 1-10-1-2-1v-3h-2l-7-33-6-34 1-3-2-1-1-6v-9h-2l2 17 13 70v4h-16l-2-26-4-13-7-11-9-10-9-12-8-14-4-11-2-7v-22l4-15 8-16 8-10 9-9 13-8 13-5z" fill="#FCD175"/>
<path transform="translate(758,606)" d="m0 0 10 1 1 4-1 24 1 6h-8v289h473l2 1v2l5-1 2 6-4 1 4 2 18-2 4-4 1 1v11h-536l-1-75v-239l2-9 6-8 8-7 5-2z" fill="#D9EDFB"/>
<path transform="translate(1176,638)" d="m0 0h59v291h-473v-288h13v275h447l-1-54v-209l-2-1h-41l-2-1-1-8z" fill="#203473"/>
<path transform="translate(815,540)" d="m0 0h26v179h27l19 3 12 4 9 5 9 7 10 11 11 17v2l-15-1h-25l-18 4-33 10-8 2-24 2h-8l-2-1-1-7v-234l1-2z" fill="#CFE3F9"/>
<path transform="translate(888,1284)" d="m0 0 16 2 13 5 13 9 8 8 9 14 3 10v26l-4 14-6 12-11 12-10 7-11 5-7 2h-19l-16-3-12-8-11-11-8-13-4-10-2-11v-12l2-12 5-12 6-10 9-10 11-7 8-4 8-2z" fill="#06235A"/>
<path transform="translate(1076,1286)" d="m0 0h45l15 4 11 6 10 8 7 8 8 14 3 6-1 26-5 16-7 11-10 10-7 5-14 6-16 3h-26l-13-1-7-6-1-4v-105l3-5z" fill="#07235A"/>
<path transform="translate(970,1286)" d="m0 0h80l6 7 1 3v7l-3 9-2 3-4 1-57 1v11l1 3 38 1 5 3 3 7v11l-2 6-3 2-9 1h-33v16l59 1 5 5 2 4v8l-3 8-5 4-7 1h-51l-21-1-5-3-3-3-1-3v-106l5-6z" fill="#07235B"/>
<path transform="translate(1069,356)" d="m0 0h15v2l5 1 12 7 16 12 7 9 5 11v2h2l6 16v35l-2 1-1 6-3 3-6 10-9 11-12 16-7 8-3 6-1 5-1 3-6 5h-2l1-9 2-15 1-15 6-31h-2v2h-2v2l-7 1-6-4-3-3h-2l-1 5-4 4h-6l-7-6v-2l-3-1 3-35 6-42 4-13z" fill="#FDBB2E"/>
<path transform="translate(1472,1286)" d="m0 0h8l6 4 7 10 19 38 11 23 14 29 1 6-3 5-5 5-7 4-6 1-7-6-11-21v-2h-46l-2 5-8 16-4 6-3 1h-9l-10-8-3-5 2-8 12-24 11-23 16-33 8-16 4-5z" fill="#06235A"/>
<path transform="translate(604,1285)" d="m0 0 9 2 5 5 2 3 1 59 3 12 5 9 7 4h14l8-4 4-5 4-10 1-9 1-56 4-7 4-2 8-1 8 2 4 4 2 5-1 61-3 17-8 16-9 9-11 7-9 3-5 1h-16l-12-2-10-6-6-5-9-12-6-13-3-13-1-63 4-8 5-2z" fill="#07235B"/>
<path transform="translate(1194,1286)" d="m0 0h13l4 2 4 7v56l3 14 5 9 8 5h14l8-4 4-5 4-9 1-6 1-62 3-5 6-2h12l6 3 3 7v52l-2 18-4 13-4 8-9 10-10 7-8 4-9 2h-15l-15-3-9-6-11-11-6-10-5-14-1-8v-65l4-6z" fill="#07235B"/>
<path transform="translate(1184,1179)" d="m0 0h53l1 1v13h31l2 1 1 9-1 3-7 1h-26v12h25l8 1 1 2v8l-2 3-9 1h-23l-1 13-10 1h-35l-13-2-9-6-5-8-2-8v-6h-42v-3l-45-1-7-1v-2l-4 2h-3v-2l-59-1v-2h-137v-1l240-1h57l1-9 6-10 8-6z" fill="#1F3372"/>
<path transform="translate(1358,1285)" d="m0 0h17l11 3 16 8 6 6 1 6-7 11-8 6-5-1-9-6-7-2h-13l-9 3-6 4-7 8-3 7-1 5v12l6 12 7 7 9 4 3 1h12l11-4 8-4h6l7 6 6 10v5l-7 7-11 6-11 4-7 1h-9l-12-2-16-5-11-8-8-8-7-11-4-9-3-15v-10l3-16 4-9 7-11 9-8 14-8 12-4z" fill="#07235B"/>
<path transform="translate(1092,455)" d="m0 0h2l-1 11-4 20-2 25-2 9 1 4 4-4h2l1-9 7-10 1 2-4 8-3 11-1 22 1-13 1-3h3l1 12 21 1 1 1v242h-1l-1-104-2 4-3-14-2-21-2-20-5-5-11-4-5-6-2-6-1-13 6-5 2-4 2-27v-8l-2 1v11l-2 15-4 1-41 1 4 1h28l5-1v2l6 1-1 6h-2v2l-6 2h-38l-8-4-3-7v-15l33-1 8-1-1-1-40-1v-13h60v-3l-32-1-9-1-1-5h2v3l17 1h7l1-13 8-41 4-21 1-2z" fill="#CDE2F4"/>
<path transform="translate(469,1286)" d="m0 0h107l4 5 2 11-3 4h-2l-1 3-4 1h-35v86l-2 9-5 3-5 1h-8l-6-4-3-4-1-89h-33l-5-3-4-4-1-3v-9l2-5z" fill="#06235A"/>
<path transform="translate(733,1285)" d="m0 0h25l60 1 3 5 2 7-2 9-2 2-5 1-35 1v78l-1 13-2 4-7 3h-10l-6-4-3-5-1-81-1-7-18-1h-16l-6-4-2-5v-10l3-5 1-1z" fill="#07235B"/>
<path transform="translate(1184,769)" d="m0 0 6 2 24 13 2 2-1 5-14 24-13 22-13 23-11 18-20 8-6 2h-4l-3-25 1-5 9-17 9-15 10-17 14-24 8-14z" fill="#1F3372"/>
<path transform="translate(1006,849)" d="m0 0h9l10 4 16 11 11 4 9-1 14-6h8l11 5 14 3 15 2 1 7-4 5h-17l-12-3-13-4-13 5-5 1h-9l-11-3-14-8-11-7-6-1-8 3-8 6-7 8-12 12-10 6-4 2-7-1-4-3-1-3-1-25-4 2-5 4-9 11-3 3-5 1-5-3 1-8 9-13 9-9 8-4h8l5 3 4 10 1 7v12l5-3 12-14 10-10 11-6z" fill="#203473"/>
<path transform="translate(883,1315)" d="m0 0h14l10 5 7 6 6 12v18l-4 10-7 8-9 5-4 1h-14l-9-4-9-10-4-8-1-4v-14l4-10 9-10 8-4z" fill="#FAFBFC"/>
<path transform="translate(1412,709)" d="m0 0h8l4 3 1 39h37l5 2v11l-3 3-8 1h-32v21l-1 25-2 1h-9l-4-2-1-3v-42l-30 1-9-2-2-3v-7l2-4 4-1 34-2 1-35 2-4z" fill="#203473"/>
<path transform="translate(890,1209)" d="m0 0h113l54 1 5 1v2l2-2h5v2h15l37 1 1 3h42v3l-431-1v-1l12-1 2-2h5l2-2 32-1 2-1v2l8-2 4 1 5-1h9 3l6-1h22z" fill="#06235A"/>
<path transform="translate(585,709)" d="m0 0h7l4 3 1 39h21l14 1 5 2 2 5-1 6-3 3-6 1h-15l-17-1v24l-1 21-4 2h-7l-5-5v-42h-18l-22-1-3-4-1-6 4-5 2-1h38v-38l3-3z" fill="#203473"/>
<path transform="translate(985,528)" d="m0 0 4 1 1 3-5 7-3 3-3 11-1 43v127l1 27 3 9h8l7-1h13v2h14l12 2 15 6v2h5l1-1h8l11 3 9 2 2 1h22l4-3 2-7 3 1 1 2 1 17-27-1-18-4-32-10-15-3h-28l-16 4-11 5h-3l-1-3 1-238 7-5 3 1 1-1z" fill="#D3E8F8"/>
<path transform="translate(1097,1316)" d="m0 0h18l10 2 10 7 7 8 2 6v16l-6 12-8 7-11 4-14 1-7-1-1-3z" fill="#FAFBFC"/>
<path transform="translate(815,540)" d="m0 0h25v174l-3-2-1-3-1-22v-26l-3-40v-19l-1-14-1-34-1-5-8-1-3 1-1 3h-3v8l2 19-2 53v12l-1 12v20l-1 12-2 8h-2l-1 7h-1v-161h9z" fill="#DAEEFC"/>
<path transform="translate(1215,629)" d="m0 0h8l19 6 3 3 1 7v9l-1 3-1 17v3l-1 25v28l1 44v4 31l1 3h-2l1 22-1 14 2 1h-2l1 9 1 1v5h-1v6 3 40l-2 9-3 1-3-2-1-282-1-1-44-1-1-4 3-2h15z" fill="#DAEEFC"/>
<path transform="translate(1055,349)" d="m0 0h18l15 3 17 8 11 9 8 8 7 10 8 16 3 9 1 2v20h40v5h-39l-7 21-7 13-12 14-11 14-6 12-3 8-3 2 1-12 6-11 10-14 13-16 7-12h2l-1-3 2-4h2l-1-5 1-7v-24l-4-12-8-16-8-10-7-7-13-9-11-5-10-2h-21l-19 5-16 8-12 11-8 10-8 16-4 15v22l5 16 7 13 8 11 9 10 7 10 5 10 2 8 1 9v14l-2 1-1-3-1-17-4-14-10-14-11-12-8-11-8-16-4-14-1-6v-11l3-16 5-15 9-15 11-11 13-9 13-6 12-3z" fill="#243976"/>
<path transform="translate(1032,550)" d="m0 0h46l15 1 1 5-1 18-1 4-4 1-41 1 4 1h28l5-1v2l6 1-1 6h-2v2l-6 2h-38l-8-4-3-7v-15l33-1 8-1-1-1-40-1z" fill="#FBFCFC"/>
<path transform="translate(1188,1192)" d="m0 0h36l1 7-1 35h-40l-4-2-3-7-1-18 3-9 4-5z" fill="#FBD076"/>
<path transform="translate(1075,457)" d="m0 0 4 2 6 8 2 3v7l-4 18-3 20-6 27-3 1h-6l-5-25-4-18-2-13v-11l4-4 2 2h4l9-12z" fill="#FDBB2D"/>
<path transform="translate(942,982)" d="m0 0h115l2 2v9l-3 3h-106l-10-1-2-3 1-9z" fill="#1F3372"/>
<path transform="translate(763,622)" d="m0 0h4l-1 6-10 3-2-1v4l-2 1-1 8 1 24 1 11v60 3l-1 19h-1l-1-15-1-3-1 19v29l-2 2h-2l-2-12v-8-3l1-15-1-2 1-10 1-6h-2v2l-3-1v-18l1-42-1-3v-10l1-6-1-5 4-16 2-5 7-7 5 1 4 1z" fill="#D2E6FC"/>
<path transform="translate(870,721)" d="m0 0h12l15 4 11 6 9 7 10 11 11 17v2l-15-1h-25l-18 4-33 10-8 2-24 2h-8l-1-2v-23l2-2h3l3 17 3 2 23-3 31-9 13-5 8-2 11-1 8 2h6l1-5-4-6-9-9-8-5-2-1-2-6-2 2-1-3-6 2-13-2z" fill="#D5EAF9"/>
<path transform="translate(1049,457)" d="m0 0 5 5 6 8v3l4 2-5-1-2-1-2 3v11l2 15 5 18 3 23 8-1 4-17 7-41 2-7v-11l-6-7h3 7v-2l2 1-1 9-4 16-8 43-3 18-12 1-10-1-2-1v-3h-2l-7-33-6-34 2-4h2l2-4z" fill="#F9D07B"/>
<path transform="translate(761,930)" d="m0 0h473v3l-33 1-11 1h-130l-94-1h-23l-2 1h-134l-18-1-28-1z" fill="#D2E6FC"/>
<path transform="translate(1033,454)" d="m0 0h2l1 15 3 1-1 3 8 45 4 17 1 10 44 1-5 5-58-1v13h40l2 2-1 1-8 1h-33l1 15 2 6 8 4h39l5-1v-2h2l1-6-6-1v-2l-5 2h-37v-1l-7-1v-1l57-1 1-22 1-5h2l1 8-2 27-4 6-4 3h-39l-11-2-5-4-4-8-2-58-4-1h3l-2-9v-4l-2-1 2-2 3 5 3 12 1 17 2 2v3h16l-11-57-4-22z" fill="#9BB7D3"/>
<path transform="translate(820,916)" d="m0 0h402l1 2-24 2h-252l-7-1-17 1h-136l-11-2v-1z" fill="#09255D"/>
<path transform="translate(665,820)" d="m0 0h10v32l27 1 1 1v9h-27l-1 28-2 1h-8v-29h-27l-2-3v-6l1-1 7-1h21z" fill="#1F3472"/>
<path transform="translate(1330,820)" d="m0 0h9v32h26l3 3-1 7-1 1-26 1-1 26-1 1h-9v-28l-28 1-1-8 1-3 28-1v-31z" fill="#1F3472"/>
<path transform="translate(697,1295)" d="m0 0h2l5 7-1 61-2 14-5 12-7 10-7 7-13 8-12 3h-12l-12-3-9-5v-1l12 1h16l12-3 10-6 10-9 6-10 4-11 2-13z" fill="#9BB7D3"/>
<path transform="translate(864,460)" d="m0 0 19 2 18 6 11 6 8 6 7 8 7 10 8 13 9 14 4 6v2l2 1 2 3v215l-1 17h-1l-1-92-1-138-9-11-7-11-10-16-11-14-10-8-13-6-14-4-13-2-14-1v4h-2v-5h2v-2z" fill="#07245B"/>
<path transform="translate(1009,779)" d="m0 0h11l19 3 20 6 17 6v1h-106v-3l15-8 9-3z" fill="#D5E9F9"/>
<path transform="translate(912,779)" d="m0 0 15 1 13 4 11 6 5 5-105 1 1-3 27-9 18-4z" fill="#D4E8F8"/>
<path transform="translate(1293,1298)" d="m0 0 5 2v66l-3 15-7 14-8 9-10 7-9 4-9 2h-13l-11-3-13-6v-2l17 3h15l11-3 11-6 11-10 5-8 4-11 2-11 1-12z" fill="#9BB7D3"/>
<path transform="translate(822,1294)" d="m0 0 6 4 2 8-2 9-3 2h-40l1 86-2 8-2 2-9 2h-10l-1-2 2-1 12-2v-2l-3 1-4-1 7-2 1-4 1-13 1-78 3-1 32-1 6-2 2-10z" fill="#9AB6D2"/>
<path transform="translate(948,1325)" d="m0 0 3 4 4 11 1 9v13l-3 16-4 9-6 9-8 8-14 9-14 4h-18l-10-3-14-6 1-2 16 3h19l12-4 12-7 9-8 6-8 5-10 4-14v-26z" fill="#9BB7D3"/>
<path transform="translate(1048,350)" d="m0 0h15l15 2v1l-23 1-19 5-16 8-12 11-8 10-8 16-4 15v22l5 16 7 13 8 11 9 10 7 10 5 10 2 8 1 9v14l-2 1-1-3-1-17-4-14-10-14-11-12-8-11-8-16-4-14-1-6v-11l3-16 5-15 9-15 11-11 13-9 13-6z" fill="#1C316F"/>
<path transform="translate(587,1298)" d="m0 0 3 1v54h-1l-1-40h-2l-3 3-4 1h-36l-1 91-2 4-4 2h-16l-2-2 12-1 6-3v-3l-1-2 1-7 1-86 35-1 4-1 6-7 4-1z" fill="#9FBAD6"/>
<path transform="translate(1222,607)" d="m0 0h24l10 5 5 5 5 8v69l-3-1-3-26-4-29-3-11-4-6-4-3-17-5-16-1v2l-4 1h-10l-5-3-1-4z" fill="#D9EDFC"/>
<path transform="translate(1188,788)" d="m0 0 7 1 3 1-1 4-14 26-10 17-10 18-8 11-3 3-7 1v-9l14-24 16-28 10-16z" fill="#FBD075"/>
<path transform="translate(1335,959)" d="m0 0 4 1v23l-3 18-7 8-7 6-6 1-5 2-9 1h-374v-1l286-1 3-1 93-1 9-3 10-9 4-8 1-5 2-29-2-1z" fill="#0A255E"/>
<path transform="translate(1511,656)" d="m0 0h7l1 19 14 1 6 2-1 4-2 1h-17v13l-1 8-4 3-4-2v-22h-14l-5-2-1-5 3-1h17v-18z" fill="#1F3472"/>
<path transform="translate(1032,575)" d="m0 0 1 3h55v1l-41 1 4 1h28l5-1v2l6 1-1 6h-2v2l-6 2h-38l-8-4-3-7z" fill="#EFF3F8"/>
<path transform="translate(1057,1297)" d="m0 0 4 1 1 2v14l-2 6-3 2-11 1h-49l-1 8 2 1h-6l-2-4v-11l1-1 57-1 4-1 3-6z" fill="#9CB8D4"/>
<path transform="translate(1059,1391)" d="m0 0 3 1 1 13-3 9-4 1h-79l-5-2 1-3-3-2h72l9-2 3-3 2-7h1l1 5z" fill="#9DB9D4"/>
<path transform="translate(1453,1382)" d="m0 0h46l2 6-3 2h-40l-7 16-6 9-2 2h-7l-6-4-2-3 11-2 9-16z" fill="#9BB7D3"/>
<path transform="translate(486,656)" d="m0 0h7v19h16l6 2-1 5-20 1-1 23-5 1-2-3-1-20-17-1-2-1v-5l19-2z" fill="#1F3472"/>
<path transform="translate(948,531)" d="m0 0 7 6 1 2v230l-4-4-3-5 1-3 3-2 1-17-1-38v-35l-1-125-4-7z" fill="#FED174"/>
<path transform="translate(1175,1334)" d="m0 0 2 3 2 5v24l-3 12-8 13-13 13-15 8-16 3h-32l-12-1-3-2 1-2 13 1h30l14-3 16-8 5-4 7-8 7-11 5-14v-3l-2 6-1-4 1-4 1-22z" fill="#9AB6D2"/>
<path transform="translate(1092,455)" d="m0 0h2l-1 11-4 20-2 25-2 9 1 4 4-4h2l1-9 7-10 1 2-4 8-3 11-1 20-3 3-11-1h-3l1-13 8-41 4-21 1-2z" fill="#FACF76"/>
<path transform="translate(1115,765)" d="m0 0 3 1 1 2 1 17-27-1-18-4-25-8 4-1 4-2h7l11 3 9 2 2 1h22l4-3z" fill="#D6EAFA"/>
<path transform="translate(1360,1315)" d="m0 0h13l8 3 10 6v1l-10-1-10-2-10 2-9 5-7 6-6 13-1 15-4-5-1-3v-12l3-10 6-8 7-6 6-3z" fill="#C8DEF4"/>
<path transform="translate(883,1315)" d="m0 0h14l10 5-2 1h-8l-9 2-11 7-7 8-4 12-1 11-2-3-1-7-1 7-2-4v-14l4-10 9-10 8-4z" fill="#9CB8D4"/>
<path transform="translate(1038,1342)" d="m0 0h3l3 5v16l-2 4-4 1-40 1-1 7h-2v-2h-3l1 2 6 1-3 2-5-1-1-2v-9l1-5 33-1 9-1 3-2z" fill="#9BB7D3"/>
<path transform="translate(848,452)" d="m0 0h18l16 2 17 5 12 5 11 8 7 6 10 13 10 16 12 19-1 3-5-3-7-12-9-13-4-7-8-10-13-13-14-8-9-4-18-4-24-1-1 3h-3-2l-1 2-1-6z" fill="#08245C"/>
<path transform="translate(1098,546)" d="m0 0 6 3 7 9 2 9v14l-2 5-6 1-5-3-1-2-1-20z" fill="#203473"/>
<path transform="translate(1196,789)" d="m0 0 6 1-2 8-5 10-9 15-10 19-13 23-6 6-7 1v-2h2l2-4 8-11 16-29 10-17 9-16 1-3z" fill="#08245C"/>
<path transform="translate(1094,551)" d="m0 0h2l1 8-2 27-4 6-4 3h-39l-11-2-5-4-3-7v-10l3 1 2 12 1 3 8 4h39l5-1v-2h2l1-6-6-1v-2l-5 2h-37v-1l-7-1v-1l57-1 1-22z" fill="#8EA9C9"/>
<path transform="translate(820,916)" d="m0 0h92l30 1-2 2-17 1h-136l-11-2v-1z" fill="#0B265F"/>
<path transform="translate(1164,828)" d="m0 0 2 1-1 3 5 1-1 4 3 2-11 19-7 9-2 2-7 1v-9l14-24z" fill="#FCD074"/>
<path transform="translate(1497,774)" d="m0 0 4 2 1 16 16 2 3 1-1 4-18 1-1 20-5 1v-22l-20-1-1-4 7-1h14v-18z" fill="#203473"/>
<path transform="translate(673,1084)" d="m0 0 7 6 3 4-9 10h-2l-2 4-8 7-6-4-4-4 2-4z" fill="#203473"/>
<path transform="translate(1175,1357)" d="m0 0h1l-1 9-5 12-7 11-8 9-11 7-12 5-11 2h-30l-13-1 2 3-4-1-1-6 14 1h26l16-3 10-4 11-7 10-10 6-10 3-8h2z" fill="#C4DAF2"/>
<path transform="translate(855,706)" d="m0 0h16l25 5 16 7 11 8 12 12 16 24v2l-3-1-4-5v-3h-4l-12-17-9-9-20-12-9-4-13-1-9-2-10-2h-3z" fill="#09255D"/>
<path transform="translate(1099,540)" d="m0 0 21 1v25l-1 12-5 1-1-11-2-7-3-6-5-6-4-2v-2h-2v-4z" fill="#D6EAFA"/>
<path transform="translate(1172,484)" d="m0 0h30v12l-1 2h-29l-1-6z" fill="#203473"/>
<path transform="translate(1207,503)" d="m0 0h13l1 2v28l-1 1h-13z" fill="#203473"/>
<path transform="translate(504,775)" d="m0 0 4 1v17h19l2 1-1 4-10 1h-10v21h-4l-1-20-19-1-1-4 13-2h7v-17z" fill="#203473"/>
<path transform="translate(1229,484)" d="m0 0h27v13l-1 1h-29v-13z" fill="#203473"/>
<path transform="translate(1183,785)" d="m0 0 5 2-2 6-15 25-16 28-7 12h-4l1-7 14-25 7-11 10-17z" fill="#09255C"/>
<path transform="translate(1414,1392)" d="m0 0 1 3v3h-2l-2 5-11 8-15 5-15 1-12-2-13-5-7-5 3-1 15 4 8 1h16v1l-8 2 12-1 10-4 7-4 1-3 9-6h3z" fill="#9BB7D3"/>
<path transform="translate(660,1046)" d="m0 0 4 1 18 18-1 4-6 7-4-2-18-18 1-4 4-2z" fill="#203473"/>
<path transform="translate(710,1047)" d="m0 0 5 1 6 8-20 20-4-1-6-7 2-4z" fill="#203473"/>
<path transform="translate(1208,448)" d="m0 0h11l2 3-1 28h-12l-1-1v-29z" fill="#203473"/>
<path transform="translate(699,1085)" d="m0 0 4 2 14 15 4 5-6 7-3 1-8-7v-2l-4-2-9-10v-2l4-2z" fill="#1C326F"/>
<path transform="translate(1214,1294)" d="m0 0h2l4 7 1 66 1 5-4-4-3-10-1-9z" fill="#9BB7D3"/>
<path transform="translate(1097,1318)" d="m0 0 1 2 27 1 1 2-22 1-1 50-2 4h-3l-1-3z" fill="#9BB7D3"/>
<path transform="translate(1294,1302)" d="m0 0h1l1 6v37l-1 16-4 16-7 14-8 10-11 7-11 4h-8l3-2 7-1v-2l13-7 11-10 5-8 4-11 2-11h2z" fill="#CDE1F8"/>
<path transform="translate(669,686)" d="m0 0 3 2 1 13 14 2v4l-1 1-12 1-1 14-1 2h-4l-1-16-14-1v-4l11-2h3v-8z" fill="#203573"/>
<path transform="translate(1332,687)" d="m0 0 4 2 1 12 13 2 2 4-1 1h-15v17l-2 1-2-1-1-6v-11h-13l-2-1 1-4 14-2z" fill="#1F3472"/>
<path transform="translate(745,802)" d="m0 0h2l1 9v16l-1 3 1 8 2-15h1l1 12v33l-3-1v-20l-1-1v13l-2 7h-2l-1-6v-9l1-4-1-7v-24l-1-2 1-6h2v-3l-2-1z" fill="#D2E6FC"/>
<path transform="translate(1206,802)" d="m0 0 1 2-9 16-14 24-12 21-2 1 1-5-1-2 4-9 6-11 10-17 4-3v-4l3-3 3-7z" fill="#08245C"/>
<path transform="translate(1104,593)" d="m0 0 6 1 3 4 1 9-2 7-1 1h-10l-2-3-1-11 2-5z" fill="#203473"/>
<path transform="translate(1288,949)" d="m0 0h59l1 11v29l-2 12-2 4-1-3v-42l1-9-56-1z" fill="#08245C"/>
<path transform="translate(1445,846)" d="m0 0h4l2 10 6 2 5 2-1 3-2 1h-9l-1 13-4-1-1-12-10-1-2-3 2-2h10z" fill="#1E3371"/>
<path transform="translate(880,720)" d="m0 0 10 1 6 2h3l8 3 9 6 13 13 10 13 1 8h-3l-12-18-11-12-11-7-9-4-14-4z" fill="#08245C"/>
<path transform="translate(620,1296)" d="m0 0 4 5 1 2v51l-2-2-1-8v16h-1l-1-6z" fill="#9BB7D3"/>
<path transform="translate(1032,546)" d="m0 0h63l-5 5-57-1z" fill="#213574"/>
<path transform="translate(556,846)" d="m0 0h2l3 12h9l1 3-1 2-10 2-1 11h-4l-1-5-1-6-11-3v-2l12-3 1-10z" fill="#1F3472"/>
<path transform="translate(1361,1319)" d="m0 0h11l10 3-4 1-7-1-10 2-9 5-7 6-6 13-1 15-4-5 3-17 5-10 5-6 10-5z" fill="#97B3D0"/>
<path transform="translate(1048,350)" d="m0 0h15l15 2v1l-23 1-19 5-16 8-7 2v-3l10-7 13-6z" fill="#203473"/>
<path transform="translate(952,1346)" d="m0 0h1v15l-3 10-4 7-3 7-9 10-1 2h-3l-2 4-6 5-11 5-8 1 3-2 5-2 4-1 5-6 6-4 8-7 6-8 5-10 4-14h2z" fill="#C1D7EF"/>
<path transform="translate(1409,1306)" d="m0 0 5 5 1 5-6 9-8 6-5-1-4-5 9-6 7-11z" fill="#A1BCD7"/>
<path transform="translate(1095,528)" d="m0 0h3v13l-1 4 2 1v30h-2l-1 6h-1l1-31-3 1-3-2h2v-3l-32-1-9-1-1-5h2v3l17 1 8-1 2-1v2h14l1-13z" fill="#9CB7D3"/>
<path transform="translate(1538,1394)" d="m0 0 4 5 1 7-5 5-8 5-7 1-4-2-2-4 12-5 4-2 2-4z" fill="#9BB7D3"/>
<path transform="translate(991,989)" d="m0 0 8 2 1-2 5 1h2l5-1 2 1v2h2v-2h5l3 1h6l1 3-22 1h-34l-2-2 5-3z" fill="#06235A"/>
<path transform="translate(1141,412)" d="m0 0 2 2v20h40v5h-39l-2 6-1-4z" fill="#B6CEE6"/>
<path transform="translate(1475,1337)" d="m0 0h2l3 7 3 4 3 9-1 1-19-1 1-5z" fill="#CDE0F0"/>
<path transform="translate(955,642)" d="m0 0h1v127l-4-4-3-5 1-3 3-2 1-17-1-38 1-5z" fill="#FEC857"/>
<path transform="translate(1032,550)" d="m0 0h46l15 1 1 5-1 18h-1v-22l-16 1h-26l-3 1h-13l-1 5h3v3h37l1 2-42-1z" fill="#D6EAFA"/>
<path transform="translate(1222,1189)" d="m0 0 5 2 1 5-1 38-1 2h-39l-7-1v-3l4 1 40 1v-42h-2z" fill="#112A64"/>
<path transform="translate(1064,353)" d="m0 0h12l13 3 13 7 11 9 8 8 8 12 7 16 2 7v24h-1l-1-23-5-14v-2h-2l-8-16-6-7-14-10-14-8-3-1v-2l-20-2z" fill="#D7D2B9"/>
<path transform="translate(693,1017)" d="m0 0h89l45 1v1l-122 1-12-1z" fill="#06235A"/>
<path transform="translate(1033,454)" d="m0 0h2l1 15 3 1-1 3 8 45 4 17 1 9-3-1-3-13-12-64z" fill="#162E6A"/>
<path transform="translate(1092,455)" d="m0 0h2l-1 11-5 27-8 41-1 8-3 2 1-13 8-41 4-21 1-2z" fill="#213574"/>
<path transform="translate(1335,959)" d="m0 0 4 1v23l-3 18-7 8-7 6-12 1 3-2 7-3 8-7 4-6 2-8 2-29-2-1z" fill="#0C2760"/>
<path transform="translate(1e3 477)" d="m0 0 5 5 3 2 4 2 9 10 7 12 3 11 1 9v14l-2 1-1-3-1-17-4-14-10-14-11-12-3-4z" fill="#112A65"/>
<path transform="translate(1063,298)" d="m0 0 4 1v36h-6v-36z" fill="#C3DAEE"/>
<path transform="translate(713,1310)" d="m0 0h17l18 1 1 1v6l-31-1-3-3v-2h-2z" fill="#9BB7D3"/>
<path transform="translate(696,1369)" d="m0 0 1 4-2 8h-2l-1 5-8 11-5 5-10 7-9 3h-9l4-2 7-1 4-4 11-7 8-8 8-16h2z" fill="#C8DDF4"/>
<path transform="translate(991,1317)" d="m0 0h61v2l-3 1-53 1-5 1z" fill="#D3E7FC"/>
<path transform="translate(986,445)" d="m0 0 2 2 2 5 2 3 8 15 8 11 2 3-3 1-6-7h-2l-8-13-5-12-1-5z" fill="#1C326F"/>
<path transform="translate(1264,860)" d="m0 0h1l1 11v35l-2 1-2-3v-42z" fill="#DBEFFD"/>
<path transform="translate(1047,983)" d="m0 0h11l1 1v9l-2 2h-9l-9-1 1-2 2 1v-2l3-3h2v-4z" fill="#08245B"/>
<path transform="translate(1160,809)" d="m0 0 2 1-4 8-3 4 1 5-2 2-1-2-1 5-1 3-3-1v6l-5 10-2-3-3 4-3 8-3 2 1-5 8-15 9-15z" fill="#0A255E"/>
<path transform="translate(472,1311)" d="m0 0h27l8 1-1 3-2 1h-29l-3-3z" fill="#9BB7D3"/>
<path transform="translate(1179,1189)" d="m0 0h13v1l-8 2-6 10-1 5-1 16-3-4-1-12 1-9z" fill="#08245C"/>
<path transform="translate(1284,1387)" d="m0 0 1 3-9 11-11 7-11 4h-8l3-2 7-1v-2l13-7 11-10z" fill="#C6DCF3"/>
<path transform="translate(1097,1316)" d="m0 0h18l10 2 9 6-2 1-12-1v-1l5-1-25-1-3-3z" fill="#CADFF5"/>
<path transform="translate(1032,575)" d="m0 0 1 3h55v1l-41 1 4 1h28l5-1v2l3 1h-53l-1 2-1-3z" fill="#93AFCD"/>
<path transform="translate(1029,572)" d="m0 0 3 1 2 12 1 3 8 4h39l7-2-1 3-13 2h-27l-11-2-5-4-3-7z" fill="#213574"/>
<path transform="translate(1075,454)" d="m0 0 7 6v2l4 2 1 6-3-3-7-9-2-1-2 6-6 8-2 3-5-1-4-7-7-9 1-2 3 1 7 10 2 4h2l4-7h2l2-4z" fill="#1F3372"/>
<path transform="translate(1409,1389)" d="m0 0 1 4-6 7-2 1 1 2-10 6-9 3-14 1-2-2 12-1v-2l14-5 10-7 4-4z" fill="#C8DDF4"/>
<path transform="translate(625,1305)" d="m0 0h1l1 67-3-4-2-5-1-10v-9l1-5h1l1 13z" fill="#D2E7F9"/>
<path transform="translate(1088,578)" d="m0 0 2 1-1 3h-5v-2l-5 2h-37v-1l-7-1v-1z" fill="#243876"/>
<path transform="translate(1090,457)" d="m0 0 2 1-1 9-4 16-6 33h-1l1-13 4-23 1-3v-11l-6-7h3 7z" fill="#D3CCAF"/>
<path transform="translate(1e3 508)" d="m0 0h16l1 4h-8l-7 1-9-1-7 3-2-1v2l-9 1-6 3h-2v-2l15-6z" fill="#0A255E"/>
<path transform="translate(1057,1297)" d="m0 0 4 1-3 13-4 6h-63v-1l57-1 4-1 3-6z" fill="#B2CBE3"/>
<path transform="translate(1170,822)" d="m0 0 7 1 2 3-7 12-4-1v-4l-3-1v-5z" fill="#FEBC31"/>
<path transform="translate(939,435)" d="m0 0h36l1 3-1 1h-14l-23-1z" fill="#213574"/>
<path transform="translate(1345,1322)" d="m0 0h1v5l-5 7-4 10-2 13-2-2v-12l3-10 6-8z" fill="#CEE3F4"/>
<path transform="translate(1036,563)" d="m0 0h36l2 2-1 1-16 1-11-1h-12v-2z" fill="#213574"/>
<path transform="translate(654,1157)" d="m0 0 3 1-3 9v24l2 1 1 6 4 2 2 5 5 6-4-2-7-8-5-10-1-5v-18z" fill="#0F2963"/>
<path transform="translate(472,1307)" d="m0 0h15l18 2 3 2v5l-1-4h-33l-5-3z" fill="#213574"/>
<path transform="translate(881,469)" d="m0 0 8 1 13 5 10 6 9 8 11 15 3 5-1 2-8-11-8-10v-2l-4-2-8-6-12-6-13-4z" fill="#F8CF7A"/>
<path transform="translate(587,1298)" d="m0 0 3 1v54h-1l-1-40h-2l-2 2v-10l-1-4 3-1z" fill="#BBD3E8"/>
<path transform="translate(1122,311)" d="m0 0h3l-2 5-9 12-8 10-4 2 2-6 12-15z" fill="#223674"/>
<path transform="translate(1144,435)" d="m0 0h39v3h-37z" fill="#203473"/>
<path transform="translate(1006,310)" d="m0 0 4 2 7 8 10 14 2 3v3l-4-2-12-16-7-9z" fill="#203473"/>
<path transform="translate(1453,1382)" d="m0 0h2l-1 7-7 14-5 5-4 6h-3l-1-3h2v-2l4-2 8-15z" fill="#CDE1F7"/>
<path transform="translate(1117,687)" d="m0 0 2 2v37l-2 2-2-14v-19z" fill="#DAEEFC"/>
<path transform="translate(1032,550)" d="m0 0h46v1h-45v8h3v3h37l1 2-42-1z" fill="#BBD2EA"/>
<path transform="translate(945,393)" d="m0 0 26 2 8 1v3h-12l-19-2-4-1z" fill="#213574"/>
<path transform="translate(1063,298)" d="m0 0h2l1 36h-4v-35z" fill="#213574"/>
<path transform="translate(870,721)" d="m0 0h12l12 3-2 5-2-2h-1l-5 1-13-2z" fill="#D3E8F8"/>
<path transform="translate(1136,439)" d="m0 0h1v12l-2 1-1 6-3 3-6 10-9 11-7 9-1-2 1-3 5-5 9-12 6-10 4-9 1-5h2z" fill="#E9DAB5"/>
<path transform="translate(848,452)" d="m0 0h18l16 2 11 3v2l-20-4-24-1-1 3h-3-2l-1 2-1-6z" fill="#0D2861"/>
<path transform="translate(1536,1399)" d="m0 0h3l-1 5-3 5-7 4h-8l-1-2 11-6 3-1 2-4z" fill="#D2E7F8"/>
<path transform="translate(1024,506)" d="m0 0h3l4 13 1 9v14l-2 1-1-3-1-17-4-14z" fill="#213574"/>
<path transform="translate(1092,455)" d="m0 0h2l-1 11-5 27-2 7h-1v-10l4-21 1-2z" fill="#172E6A"/>
<path transform="translate(1478,1344)" d="m0 0 4 2 4 9-1 3h-7l-5-2 2-4 2-3z" fill="#F0F6F9"/>
<path transform="translate(952,1346)" d="m0 0h1v15l-3 10-6 10-4 2 6-14 3-11h2z" fill="#BDD4EB"/>
<path transform="translate(1335,959)" d="m0 0 4 1v23l-1 5-3 1v-16l1-12-2-1z" fill="#0A255D"/>
<path transform="translate(969,345)" d="m0 0 5 1 12 6 14 8-1 3-24-12-6-4z" fill="#223674"/>
<path transform="translate(880,1316)" d="m0 0h14l-2 2-13 4-10 7-1 2-3-1 10-12z" fill="#CCE1F7"/>
<path transform="translate(1339,1077)" d="m0 0 4 4 4 9 1 5v17l-2 3-1-8v-14l-1-4-2 1-2-9z" fill="#0E2862"/>
<path transform="translate(1038,1367)" d="m0 0 4 1-2 1-16 1h-25v7h-6l-1-3h3v2h2v-7l1-1z" fill="#D6EAFC"/>
<path transform="translate(1159,350)" d="m0 0h3l-2 4-25 13-4-1h2l1-3 7-3 6-2h2l2-4z" fill="#213574"/>
<path transform="translate(1169,397)" d="m0 0h9v2l-10 2-11 1h-14v-2z" fill="#19306D"/>
<path transform="translate(652,949)" d="m0 0h56v1l-48 1-4 2-1 5h-2l-1 3v-7l1-1z" fill="#06235A"/>
<path transform="translate(1198,1041)" d="m0 0 4 2 4 6 3 7 3 5 7 5-2 1-6-4-7-7-6-12z" fill="#0A255D"/>
<path transform="translate(713,1307)" d="m0 0 8 1 27 1 2 1v9h-1l-1-7-18-1h-16l-4-3z" fill="#213574"/>
<path transform="translate(1113,562)" d="m0 0 5 1 1 2v13l-5 1z" fill="#F8FAFC"/>
<path transform="translate(1094,551)" d="m0 0h2l1 8-1 17-1 6-2-3v-27z" fill="#213574"/>
<path transform="translate(1044,513)" d="m0 0h1l5 22 1 9-3-1-3-13-2-10v-6z" fill="#1E3371"/>
<path transform="translate(1293,1298)" d="m0 0 5 2-1 4-2-1-1 49-1 8h-1z" fill="#96B2CF"/>
<path transform="translate(705,1294)" d="m0 0h1l2 13-3-2-1 52h-1v-57h1z" fill="#CCE1F6"/>
<path transform="translate(1048,350)" d="m0 0h15l15 2v1l-32 1v-3z" fill="#0C275F"/>
<path transform="translate(1499,1387)" d="m0 0 3 1 1 3h-42l-3-2h40z" fill="#D4E9FA"/>
<path transform="translate(985,424)" d="m0 0h1l2 17 2 7v5l-2-3-1-3-2 1-2-6v-10h1z" fill="#132C67"/>
<path transform="translate(954,749)" d="m0 0h2v20l-4-4-3-5 1-3 3-2z" fill="#FCD37E"/>
<path transform="translate(1160,809)" d="m0 0 2 1-4 8-3 4 1 5-2 2-1-2-1 5-1 3h-5l2-5z" fill="#09255D"/>
<path transform="translate(1029,572)" d="m0 0 3 1 2 12 1 3 8 4 5 1v1h-8l-6-3-3-4-2-5z" fill="#213574"/>
<path transform="translate(1075,457)" d="m0 0 4 2 6 8 1 5-6-5-6-2h-2l2-6z" fill="#EFCC7F"/>
<path transform="translate(1173,1184)" d="m0 0 2 1-1 1-1 7-3 5-5 2 1-7 6-8z" fill="#09255D"/>
<path transform="translate(1040,580)" d="m0 0h7l4 1h28l5-1v2l3 1h-48z" fill="#9BB7D3"/>
<path transform="translate(999,509)" d="m0 0 3 1-7 3-4 2-2-1v2l-9 1-6 3h-2v-2l15-6z" fill="#0B265F"/>
<path transform="translate(1042,583)" d="m0 0h48l-1 6-3-1v-4h-44z" fill="#D9EDFC"/>
<path transform="translate(991,453)" d="m0 0 3 3 9 16 8 10 2 5-5-5-7-9-8-14z" fill="#DFE8EF"/>
<path transform="translate(1208,448)" d="m0 0h11l2 3-1 27-3-1 1-2 1-24h-11z" fill="#0B265F"/>
<path transform="translate(1050,540)" d="m0 0h2v3l17 1 8-1 2-1v2h6v1l-6 1h-19l-9-1z" fill="#CBDDED"/>
<path transform="translate(1096,513)" d="m0 0 1 2-1 7 2-1-1 4 1 3h-3l-1 17-2-1 1-22z" fill="#213574"/>
<path transform="translate(466,677)" d="m0 0h7v3l13 2v1h-18l-2-1z" fill="#0C2760"/>
<path transform="translate(1033,454)" d="m0 0h2l1 15 3 1-1 3-1 4h-2l-2-11z" fill="#182F6C"/>
<path transform="translate(941,987)" d="m0 0h4l2 3 4 1v3l-7 1-3-1-1-4z" fill="#06235A"/>
<path transform="translate(1097,559)" d="m0 0 2 3v14h-2l-1 6h-1l1-22z" fill="#9DB8D4"/>
<path transform="translate(945,1320)" d="m0 0 3 4 2 8v26h-1l-1-22-3-11-1-4z" fill="#203473"/>
<path transform="translate(1050,455)" d="m0 0 3 1 7 10 2 6 2 1h-4l-4-7-7-9z" fill="#172E6A"/>
<path transform="translate(864,789)" d="m0 0 2 1-6 2v2h13v1l-22 1 1-3z" fill="#B7CEE7"/>
<path transform="translate(1090,457)" d="m0 0 2 1-4 15h-1l-2-9-5-5h3 7z" fill="#EED18C"/>
<path transform="translate(1087,493)" d="m0 0h1l-1 18-2 9-3 1 2-12z" fill="#EACC86"/>
<path transform="translate(1180,1232)" d="m0 0 9 2 33 1v1h-35l-7-1z" fill="#07235B"/>
<path transform="translate(1039,355)" d="m0 0 4 1-12 5-9 5h-3v-2l16-8z" fill="#0D2760"/>
<path transform="translate(1477,1343)" d="m0 0 2 1-2 7-4 5 3 1h-10l1-3v2l6-5 1-4h2z" fill="#829CBF"/>
<path transform="translate(1016,367)" d="m0 0h2v2l-8 7-4 2 2-4v-1l-3 2 2-4 3-3z" fill="#112A64"/>
<path transform="translate(1204,1030)" d="m0 0h2v2h2l3 8v3l-3 1-3-7-2-6z" fill="#09255D"/>
<path transform="translate(1213,1404)" d="m0 0h6l9 3 5 1 14 1v1h-15l-15-3z" fill="#213574"/>
<path transform="translate(861,1348)" d="m0 0 2 3 1 10h2l2 7-4-2-3-6z" fill="#C9DEF3"/>
<path transform="translate(1294,1352)" d="m0 0h1v9l-2 9-3 1 1-11h2v-7z" fill="#C7DDF4"/>
<path transform="translate(662,1170)" d="m0 0h1l1 18-2 2-1-1-1-15z" fill="#08245C"/>
<path transform="translate(1055,349)" d="m0 0h18l9 2v1h-11l-16-2z" fill="#1E3371"/>
<path transform="translate(777,1406)" d="m0 0 3 1-4 4-6 1-9-1v-2l12-1z" fill="#CDE2F6"/>
<path transform="translate(1118,1317)" d="m0 0 7 1 9 6-2 1-12-1v-1l5-1-4-2v-2z" fill="#C2D9EF"/>
<path transform="translate(952,1346)" d="m0 0h1v15l-2 7-2-2v-8h2z" fill="#CBE0F7"/>
<path transform="translate(1e3 477)" d="m0 0 5 5 3 2 4 2 5 5-1 2-4-4h-3l-8-8z" fill="#0B265F"/>
<path transform="translate(1136,439)" d="m0 0h1v12l-2 1-1 6-4 3-1-2 4-9 1-5h2z" fill="#CEC9AD"/>
<path transform="translate(536,1404)" d="m0 0 2 2-5 5-9-1 1-2 9-3z" fill="#C6DCF3"/>
<path transform="translate(1339,1077)" d="m0 0 4 4 4 9v2l-3-1-3-3-1-7z" fill="#0B265F"/>
<path transform="translate(1188,790)" d="m0 0 2 2h-2l-3 10h-2l-2 4-1-2 4-10z" fill="#FEBD35"/>
<path transform="translate(1075,454)" d="m0 0 7 6v2l4 2 1 6-3-3-7-9-2-1v2h-2z" fill="#192F6C"/>
<path transform="translate(1142,359)" d="m0 0 3 1v2l-10 5-4-1h2l1-3 7-3z" fill="#243876"/>
<path transform="translate(861,1403)" d="m0 0h6l6 3 9 2v1l-13-1-8-4z" fill="#213574"/>
<path transform="translate(1172,1328)" d="m0 0 3 4-1 26h-1z" fill="#213574"/>
<path transform="translate(591,1291)" d="m0 0h1l-1 30h-1l-1-25z" fill="#213574"/>
<path transform="translate(1118,711)" d="m0 0h1v15l-2 2-2-14z" fill="#DBEFFD"/>
<path transform="translate(1525,1408)" d="m0 0 5 1v3l-2 1h-8l-1-2z" fill="#D7EBFA"/>
<path transform="translate(1471,1344)" d="m0 0h1l2 7-5 5h-2l1-6z" fill="#C9DEF3"/>
<path transform="translate(1150,399)" d="m0 0h9l-2 3h-14v-2z" fill="#213574"/>
<path transform="translate(944,1380)" d="m0 0v3l-6 8-5 4 2-4 5-8z" fill="#D5EAFA"/>
<path transform="translate(1039,1351)" d="m0 0h2v7l-2 5h-7l2-2 4-2v-6z" fill="#D2E6FC"/>
<path transform="translate(1043,351)" d="m0 0 9 1-2 3-7 1-5-2 2-2z" fill="#1C326F"/>
<path transform="translate(1284,1387)" d="m0 0 1 3-9 11-2-1 6-10z" fill="#CFE3F9"/>
<path transform="translate(872,1320)" d="m0 0 2 1-8 9 1 2h-2v3l-3 1 1-6z" fill="#B1CAE3"/>
<path transform="translate(1092,455)" d="m0 0h2l-1 11-2 8h-1l1-16z" fill="#142C67"/>
<path transform="translate(1333,821)" d="m0 0h6v25h-1l-1-11v-11z" fill="#06235A"/>
<path transform="translate(517,1409)" d="m0 0 13 1v2l-13 1z" fill="#E2F1FC"/>
<path transform="translate(1029,572)" d="m0 0 3 1 1 13h-2l-2-4z" fill="#243876"/>
<path transform="translate(1011,488)" d="m0 0 8 6 3 5-2 2-5-7-3-1z" fill="#1C316F"/>
<path transform="translate(1409,1389)" d="m0 0 1 4-6 7-2 1 1 2-6-1 5-4 6-6z" fill="#B5CDE6"/>
<path transform="translate(1481,1353)" d="m0 0h4l1 4-1 1h-7l-2-2z" fill="#CBE0F1"/>
<path transform="translate(662,1064)" d="m0 0 4 2 3 3 5 3 1 4-4-2-9-9z" fill="#09255D"/>
<path transform="translate(880,720)" d="m0 0 10 1 6 2 2 1-1 2-17-5z" fill="#0C2760"/>
<path transform="translate(1531,1404)" d="m0 0 6 3-5 4h-2v-2l-3-1z" fill="#CDE2F8"/>
<path transform="translate(1038,864)" d="m0 0 5 1 10 4v1h-6l-9-4z" fill="#0B265E"/>
<path transform="translate(945,867)" d="m0 0 2 1-14 14v-3l6-7z" fill="#D6E4F1"/>
<path transform="translate(1074,564)" d="m0 0 1 4h-19v-1l17-2z" fill="#C4DBEE"/>
<path transform="translate(1047,457)" d="m0 0 2 1-8 11h-2l2-6 5-5z" fill="#1B316F"/>
<path transform="translate(1442,1403)" d="m0 0 2 1-2 4-4 6h-3l-1-3h2v-2l4-2z" fill="#C5DBF2"/>
<path transform="translate(678,1150)" d="m0 0 2 1-12 12v-3l6-7z" fill="#D3E2F0"/>
<path transform="translate(1160,809)" d="m0 0 2 1-4 8-6 8v-3z" fill="#0F2963"/>
<path transform="translate(901,728)" d="m0 0 6 2 5 5h-7l-2-4-2-1z" fill="#C2D8F0"/>
<path transform="translate(1381,1319)" d="m0 0 5 2 5 4-10-1z" fill="#CBE0F5"/>
<path transform="translate(621,1403)" d="m0 0 5 3 10 2v1h-7l-9-3-2-2z" fill="#213574"/>
<path transform="translate(748,844)" d="m0 0 2 3v12l-3-1v-13z" fill="#DBEFFD"/>
<path transform="translate(1097,576)" d="m0 0h2l2 9h-6z" fill="#CADFF6"/>
<path transform="translate(1100,511)" d="m0 0 1 2-3 8-3 2 1-8h2z" fill="#465D91"/>
<path transform="translate(1035,461)" d="m0 0 5 1-1 7h-3z" fill="#DFE8F1"/>
<path transform="translate(1100,501)" d="m0 0 1 2-4 8-1 3h-2l-1-3z" fill="#F6CF7A"/>
<path transform="translate(1057,1389)" d="m0 0 3 1-1 11-2 2z" fill="#C4DAF1"/>
<path transform="translate(696,1369)" d="m0 0 1 4-2 8-3-1 1-6h2z" fill="#CADFF6"/>
<path transform="translate(1122,385)" d="m0 0 4 2 3 5 1 8-2-2z" fill="#E5D09D"/>
<path transform="translate(1137,848)" d="m0 0h2l-2 7-4 6-1-3z" fill="#0B265F"/>
<path transform="translate(855,696)" d="m0 0h1l2 7 11 2v1l-14-1z" fill="#F6CF7B"/>
<path transform="translate(1037,476)" d="m0 0 2 4v9l-2-1-1-11z" fill="#0F2963"/>
</svg>
